<?xml version="1.0" encoding="UTF-8"?>
<!DOCTYPE svg PUBLIC "-//W3C//DTD SVG 1.1//EN" "http://www.w3.org/Graphics/SVG/1.1/DTD/svg11.dtd">
<!-- Creator: CorelDRAW -->
<svg xmlns="http://www.w3.org/2000/svg" xml:space="preserve" width="84.8918mm" height="80.8165mm" version="1.1" style="shape-rendering:geometricPrecision; text-rendering:geometricPrecision; image-rendering:optimizeQuality; fill-rule:evenodd; clip-rule:evenodd"
viewBox="0 0 9528.98 9071.54"
 xmlns:xlink="http://www.w3.org/1999/xlink"
 xmlns:xodm="http://www.corel.com/coreldraw/odm/2003">
 <defs>
  <style type="text/css">
   <![CDATA[
    .fil2 {fill:#EC9B3B}
    .fil1 {fill:#FAAC3C}
    .fil0 {fill:#FBE153}
   ]]>
  </style>
 </defs>
 <g id="Layer_x0020_1">
  <metadata id="CorelCorpID_0Corel-Layer"/>
  <g id="_33575853248">
   <g>
    <path class="fil0" d="M893.81 2845.82c85.07,-133.74 33.34,-194.22 62.58,-355.41l56.94 1382.62c831.98,-145.59 915.91,-1845.34 1728.28,-1731.89 38.75,363.39 -275.01,22.62 -760.23,1073.56 -307.49,666.02 -379.98,586.31 -941.33,953.06l0.17 260.79 323.43 275.33c290.49,-52.96 900.58,-328.72 1113.15,-304.4 76.28,-114.36 244.62,-45.83 336.53,-0.11l56.75 -158.47c431.83,-67.96 646.97,50.48 965.41,38.74l28.5 -411.37c-135.62,51.74 -71.54,168.35 -85.61,349.69 -231.96,-38.6 -650.29,-152.67 -894,-36.22 -4.82,-35.93 -34.02,-179.42 -34.02,-194.4 -0.01,-39.23 23.34,-153.35 25.29,-236.43 4.7,-199.69 -44.85,-328.85 -41.64,-477.11l7.37 -943.43c236.62,-18.38 331.43,-2.36 547.53,32.81 -141.18,-125.55 -346.52,-122.95 -535.3,-115.28l-8.45 -172.86 227.09 10.7 -230.79 -79.8c-40.93,-532.42 95.79,-1091.7 -165.74,-1543.47 -320.69,-553.96 -1088.15,-675.89 -1584.15,-0.75 -204.4,278.22 -199.06,306.69 -197.78,673.59 2,570.04 0.03,1140.46 0.03,1710.53z"/>
    <path class="fil0" d="M4577.34 6759.82c-111.65,85.94 -232.04,235.8 -378.19,168.61 -59.09,160.34 -259.47,329.15 -413.77,397.37 -16.3,208.4 -752.26,645.62 -1047.99,639.91 -85.24,93.22 -374.92,42.54 -508.25,56.91 233.54,394.63 1357.66,768.07 1838.59,865.22 609.63,123.14 1773.44,26.51 2291.93,-306.26l-148.45 -4.14c-215.12,-219.18 -138.37,-650.73 -170.9,-943.92 -34.81,-313.66 -202.46,-629.76 -235.13,-885.08l-211.07 50.99 -105.79 -130.86 -2.72 123.99c-289.61,22.34 -629.38,129 -921.84,99.46l13.58 -132.21z"/>
    <path class="fil0" d="M3785.18 6108.49l-0.9 525.54c-242.47,-2.21 -670.06,-441.65 -705.25,-620.16l307.63 32.82c-121.4,-94.95 -153.62,-77.19 -315.9,-123.32 -91.02,-25.86 -173.63,-61.16 -262.26,-95.18 -363.69,-139.57 -1160.52,-612.27 -1398.57,-859.33l-380.02 97.14c-78.18,827.91 225.28,2168.47 965.56,2612.63 417.74,250.64 1057.81,31.49 1390.97,-248.05 593.84,-498.24 494.35,-1247.12 398.73,-1322.1z"/>
    <path class="fil0" d="M2694.53 4557.3c-317.66,139.69 -771,157.8 -1073.37,365.25 238.16,190.69 1038.4,656.41 1332.26,767.47 -97.57,-304.86 -116,-287.2 -87.32,-602.2 9.79,-107.6 -37.19,-156.05 -33.62,-309.45 4.51,-194.26 33.34,-111.69 2.11,-306.78l-140.06 85.71z"/>
   </g>
   <path class="fil1" d="M4069.22 6752.84l-6.36 -580.54c79.33,-4.13 489.64,31.97 590.3,43 -110.96,210.3 -328.92,552.44 -583.94,537.54zm0 -831.77l-6.57 -1174.65c272.14,52.36 197.78,340.96 371.54,492.82 318.18,278.05 393.23,357.96 364.8,660.93 -186.86,68.55 -520.71,37.13 -729.77,20.9zm1653.34 525.09c-118.67,-89.36 -242.83,-301.98 -362.93,-429.22 -162.43,-172.08 -215.56,-296.45 -122.54,-577.95 885.25,-296.88 627.77,-576.78 752.55,-950.59 199.2,-66.48 1139.14,-38.95 1393.06,-19.24 28.03,352.7 -347.73,1014.23 -582.32,1226.06 -261.77,236.36 -740,658.93 -1077.81,750.93zm-2650.32 -4360.44l-227.09 -10.7 8.45 172.86c188.78,-7.67 394.13,-10.27 535.3,115.28 185.97,225.84 457.14,10.62 437.21,1070.99 -5.35,284.82 -76.01,159.13 37.88,434.11l-28.5 411.37c-318.44,11.74 -533.57,-106.69 -965.41,-38.74l-56.75 158.47c-91.91,-45.72 -260.25,-114.25 -336.53,0.11l223.45 16.01 -5.74 141.83 140.06 -85.71c267.21,34.55 691.98,-98.94 940.41,80.18 26.89,228.54 -7.15,476.11 9.71,703.24 10.51,141.52 50.16,150.45 42.16,315.58 -16.07,331.86 -74.72,278.06 -239.53,278.06 17.57,15.18 -4.83,139 196.38,72.48 169.36,-55.98 50.35,-647.79 107.74,-1151.55l102.79 1172.12 139.31 59.97c-200.77,46.37 -150.19,441.59 -169.34,639.6 -13.39,138.51 -10.25,251.41 -64.8,365.86 -72.69,152.51 -83.23,133.59 -114.03,318.66 154.3,-68.22 354.68,-237.04 413.77,-397.37 146.15,67.19 266.53,-82.67 378.19,-168.61 165.85,59.58 416.08,-615.77 471.89,-716.53 103.1,45.79 58.16,4.2 227.82,293.87 79.34,135.46 141,175.51 211.26,331.41l105.79 130.86 211.07 -50.99 18.04 -122.77c373.43,-180.83 910.08,-570.28 1160.06,-866.38 140.28,-166.16 301.79,-427.11 406.04,-623.77l204.43 -548.12c18.06,-71.21 3.63,-199.13 191.83,-164.65 141.66,25.96 101.78,185.22 305.61,407.33 131.25,143 309.86,193.88 450.33,302.22 -153.68,567.08 158.88,1244.61 -604.72,2214.23 -292.45,371.34 -1084.78,1191.22 -1577.14,1235.05 -518.49,332.77 -1682.29,429.4 -2291.93,306.26 -480.93,-97.15 -1605.04,-470.59 -1838.59,-865.22 133.33,-14.37 423.01,36.31 508.25,-56.91l-601.62 0.34 25.29 100.64c-83.61,232.76 1283.48,855.31 1844.61,967.74 236.63,47.4 1151.83,48.96 1388.11,7.14 1075.54,-190.36 2024.8,-776.47 2669.04,-1648.21 576.41,-779.96 567.06,-1304.49 640.51,-2250.85 261.67,-95.36 614.82,-287.04 734.93,-532.53 223.22,-456.23 37,-1048.42 -586.38,-1176.1 -317.94,-65.12 -697.3,71.12 -868.94,354.5 -165.16,272.67 -42.5,370.54 -276.6,396.74l89.41 -2366.28c173.42,-126.47 695.87,-241.45 808.91,-857.53 31.82,-173.4 -75.61,-466.49 -194.89,-608.62 -683.16,-814.06 -1991.83,41.89 -1377.16,1060.29 146.37,242.52 329.98,238.54 505.12,366.26l-69.03 2405.89c-2224.1,0 -1272.75,55.29 -1940.32,-356.93 -198.43,-122.54 -411.63,-134.17 -618.41,-62.99 -170.36,58.64 -349.36,205.89 -462.39,329.79 -233.11,255.53 -22.74,385.33 -378.37,320.99 -106.57,-586.33 10.1,-1163.3 -61.16,-1562.75 -100.89,-565.43 -383.91,-579.29 -813.6,-810.32l-122.22 42.81z"/>
   <path class="fil2" d="M3386.66 6046.68c77.01,75.13 273.22,83.41 398.52,61.8 95.62,74.98 195.11,823.86 -398.73,1322.1 -333.16,279.53 -973.23,498.69 -1390.97,248.05 -740.28,-444.16 -1043.74,-1784.72 -965.56,-2612.63l380.02 -97.14c238.06,247.06 1034.89,719.76 1398.57,859.33 88.63,34.01 171.24,69.31 262.26,95.18 162.28,46.12 194.5,28.37 315.9,123.32zm-3166.18 -1307.06c43.84,-183.11 251.68,-346.41 391.59,-440.27 179.28,-120.27 -5.05,-100.51 195.74,-107.44 15.89,204.71 44.59,488.9 -19.24,680.13 -568.82,106.1 -430.69,111.69 -568.09,-132.41zm673.33 -1893.81l-0.91 1051.88c-44.7,30.52 -1002.96,456.9 -882.42,969.35 111.66,474.73 600.35,256.66 836.94,275.46 12.13,118.76 42.41,337.05 62.08,452.8 92.52,544.18 99.05,690.19 324.54,1259.78 130.12,328.66 616.68,1086.63 927.02,1211.61l-25.29 -100.64 601.62 -0.34c295.73,5.71 1031.69,-431.51 1047.99,-639.91 30.8,-185.08 41.34,-166.15 114.03,-318.66 54.55,-114.45 51.41,-227.35 64.8,-365.86 19.15,-198.02 -31.43,-593.23 169.34,-639.6l-139.31 -59.97 -102.79 -1172.12c-57.38,503.76 61.62,1095.57 -107.74,1151.55 -201.21,66.52 -178.81,-57.3 -196.38,-72.48 -96.9,-44.9 -549.04,-167.37 -633.92,-158.63 -293.86,-111.06 -1094.1,-576.78 -1332.26,-767.47 302.36,-207.45 755.7,-225.55 1073.37,-365.25l5.74 -141.83 -223.45 -16.01c-212.57,-24.32 -822.66,251.44 -1113.15,304.4l-323.43 -275.33 -0.17 -260.79c561.34,-366.75 633.83,-287.04 941.33,-953.06 485.22,-1050.94 798.97,-710.16 760.23,-1073.56 -812.37,-113.45 -896.3,1586.31 -1728.28,1731.89l-56.94 -1382.62c-29.24,161.19 22.49,221.67 -62.58,355.41z"/>
  </g>
 </g>
</svg>
